<svg width="54" height="53" viewBox="0 0 54 53" fill="none" xmlns="http://www.w3.org/2000/svg">
<path d="M16.9511 47.4234C22.2728 50.1533 28.3946 50.8927 34.2133 49.5084C40.0319 48.1241 45.1649 44.7071 48.6871 39.8731C52.2093 35.0391 53.8891 29.1061 53.4239 23.1431C52.9588 17.1802 50.3791 11.5794 46.1498 7.35016C41.9206 3.1209 36.3198 0.541243 30.3569 0.0760534C24.3939 -0.389137 18.4609 1.29073 13.6269 4.81294C8.79293 8.33514 5.37591 13.4681 3.9916 19.2867C2.60728 25.1054 3.34671 31.2272 6.07664 36.5489L0.5 53L16.9511 47.4234Z" fill="white"/>
<g clip-path="url(#clip0_10120_188118)">
<path d="M33.4589 19.7099L28.1451 30.8954M28.4533 18.7029L23.1395 29.8885M35.4304 21.3319L39.2058 16.2705L40.3769 17.7591C40.7283 18.2108 41.1792 18.5751 41.6946 18.8238L43.1487 19.5146L42.4579 20.9687C42.2134 21.4833 42.0809 22.0509 42.1091 22.6264L42.1417 24.5202L36.0175 22.9819M21.1681 28.2664L17.3926 33.3278L16.2216 31.8392C15.8702 31.3876 15.4193 31.0232 14.9039 30.7745L13.4498 30.0838L14.1406 28.6296C14.383 28.1113 14.5023 27.544 14.4894 26.9719L14.4568 25.0781L20.5809 26.6165M27.8941 18.4372L24.5942 19.6116C23.8282 19.8755 23.1221 20.2886 22.5168 20.8271C21.9114 21.3656 21.4188 22.0188 21.0675 22.7488C20.7161 23.4789 20.513 24.2714 20.4698 25.0804C20.4266 25.8895 20.5443 26.699 20.8159 27.4623C21.0875 28.2256 21.5078 28.9275 22.0524 29.5274C22.597 30.1273 23.2551 30.6132 23.9886 30.9572C24.7222 31.3011 25.5167 31.4963 26.3261 31.5313C27.1355 31.5663 27.9439 31.4405 28.7044 31.1611L32.0043 29.9868C32.7703 29.7229 33.4764 29.3097 34.0817 28.7712C34.6871 28.2327 35.1797 27.5796 35.531 26.8495C35.8824 26.1195 36.0855 25.327 36.1287 24.518C36.1719 23.7089 36.0542 22.8993 35.7826 22.136C35.5109 21.3727 35.0907 20.6708 34.5461 20.071C34.0015 19.4711 33.3434 18.9851 32.6099 18.6412C31.8763 18.2972 31.0818 18.1021 30.2724 18.0671C29.4629 18.0321 28.6546 18.1579 27.8941 18.4372Z" stroke="#59595E" stroke-width="2" stroke-linecap="round" stroke-linejoin="round"/>
</g>
<defs>
<clipPath id="clip0_10120_188118">
<rect width="29.7206" height="29.7206" fill="white" transform="translate(21.2532 5) rotate(25.4105)"/>
</clipPath>
</defs>
</svg>
